<mxfile host="app.diagrams.net" modified="2021-01-06T14:44:06.531Z" agent="5.0 (Windows NT 10.0; Win64; x64) AppleWebKit/537.36 (KHTML, like Gecko) Chrome/87.0.4280.88 Safari/537.36" etag="J2Zw9abQo_WXGEaIRE7w" version="13.10.3" type="github">
  <diagram id="tyCWtxlNLLOEvRVOR6bN" name="Page-1">
    <mxGraphModel dx="779" dy="1341" grid="1" gridSize="10" guides="1" tooltips="1" connect="1" arrows="1" fold="1" page="1" pageScale="1" pageWidth="1169" pageHeight="827" math="0" shadow="0">
      <root>
        <mxCell id="0" />
        <mxCell id="1" parent="0" />
        <mxCell id="NO2JVZ4yjpvgCOlLwr5w-1" value="Postgres" style="shape=datastore;whiteSpace=wrap;html=1;" vertex="1" parent="1">
          <mxGeometry x="510" y="36" width="60" height="60" as="geometry" />
        </mxCell>
        <mxCell id="NO2JVZ4yjpvgCOlLwr5w-10" value="" style="group" vertex="1" connectable="0" parent="1">
          <mxGeometry x="150" y="20" width="90" height="64" as="geometry" />
        </mxCell>
        <mxCell id="NO2JVZ4yjpvgCOlLwr5w-2" value="RabbitMQ&lt;br&gt;&amp;nbsp;&lt;br&gt;&amp;nbsp;" style="rounded=1;whiteSpace=wrap;html=1;" vertex="1" parent="NO2JVZ4yjpvgCOlLwr5w-10">
          <mxGeometry y="10.666666666666666" width="90" height="53.333333333333336" as="geometry" />
        </mxCell>
        <mxCell id="NO2JVZ4yjpvgCOlLwr5w-3" value="" style="rounded=1;whiteSpace=wrap;html=1;" vertex="1" parent="NO2JVZ4yjpvgCOlLwr5w-10">
          <mxGeometry x="7" y="32.8" width="77" height="7.466666666666667" as="geometry" />
        </mxCell>
        <mxCell id="NO2JVZ4yjpvgCOlLwr5w-8" value="" style="rounded=1;whiteSpace=wrap;html=1;" vertex="1" parent="NO2JVZ4yjpvgCOlLwr5w-10">
          <mxGeometry x="7" y="42.53" width="77" height="7.47" as="geometry" />
        </mxCell>
        <mxCell id="NO2JVZ4yjpvgCOlLwr5w-9" value="" style="rounded=1;whiteSpace=wrap;html=1;" vertex="1" parent="NO2JVZ4yjpvgCOlLwr5w-10">
          <mxGeometry x="7" y="52.2" width="77" height="7.466666666666667" as="geometry" />
        </mxCell>
        <mxCell id="NO2JVZ4yjpvgCOlLwr5w-17" style="edgeStyle=orthogonalEdgeStyle;rounded=0;comic=0;orthogonalLoop=1;jettySize=auto;html=1;startArrow=classic;startFill=1;endArrow=none;endFill=0;" edge="1" parent="1" source="NO2JVZ4yjpvgCOlLwr5w-11" target="NO2JVZ4yjpvgCOlLwr5w-1">
          <mxGeometry relative="1" as="geometry" />
        </mxCell>
        <mxCell id="NO2JVZ4yjpvgCOlLwr5w-11" value="Citycatpg Server 1" style="rounded=0;whiteSpace=wrap;html=1;" vertex="1" parent="1">
          <mxGeometry x="320" y="-50" width="120" height="60" as="geometry" />
        </mxCell>
        <mxCell id="NO2JVZ4yjpvgCOlLwr5w-18" style="edgeStyle=orthogonalEdgeStyle;rounded=0;comic=0;orthogonalLoop=1;jettySize=auto;html=1;startArrow=classic;startFill=1;endArrow=none;endFill=0;" edge="1" parent="1" source="NO2JVZ4yjpvgCOlLwr5w-15" target="NO2JVZ4yjpvgCOlLwr5w-1">
          <mxGeometry relative="1" as="geometry" />
        </mxCell>
        <mxCell id="NO2JVZ4yjpvgCOlLwr5w-15" value="Citycatpg Server 2" style="rounded=0;whiteSpace=wrap;html=1;" vertex="1" parent="1">
          <mxGeometry x="320" y="36" width="120" height="60" as="geometry" />
        </mxCell>
        <mxCell id="NO2JVZ4yjpvgCOlLwr5w-19" style="edgeStyle=orthogonalEdgeStyle;rounded=0;comic=0;orthogonalLoop=1;jettySize=auto;html=1;startArrow=classic;startFill=1;endArrow=none;endFill=0;" edge="1" parent="1" source="NO2JVZ4yjpvgCOlLwr5w-16" target="NO2JVZ4yjpvgCOlLwr5w-1">
          <mxGeometry relative="1" as="geometry" />
        </mxCell>
        <mxCell id="NO2JVZ4yjpvgCOlLwr5w-16" value="Citycatpg Server 3" style="rounded=0;whiteSpace=wrap;html=1;" vertex="1" parent="1">
          <mxGeometry x="320" y="120" width="120" height="60" as="geometry" />
        </mxCell>
        <mxCell id="NO2JVZ4yjpvgCOlLwr5w-20" style="edgeStyle=orthogonalEdgeStyle;rounded=0;comic=0;orthogonalLoop=1;jettySize=auto;html=1;entryX=0;entryY=0.5;entryDx=0;entryDy=0;startArrow=none;startFill=0;endArrow=classic;endFill=1;" edge="1" parent="1" source="NO2JVZ4yjpvgCOlLwr5w-3" target="NO2JVZ4yjpvgCOlLwr5w-11">
          <mxGeometry relative="1" as="geometry" />
        </mxCell>
        <mxCell id="NO2JVZ4yjpvgCOlLwr5w-22" style="edgeStyle=orthogonalEdgeStyle;rounded=0;comic=0;orthogonalLoop=1;jettySize=auto;html=1;entryX=0;entryY=0.5;entryDx=0;entryDy=0;startArrow=none;startFill=0;endArrow=classic;endFill=1;" edge="1" parent="1" source="NO2JVZ4yjpvgCOlLwr5w-9" target="NO2JVZ4yjpvgCOlLwr5w-16">
          <mxGeometry relative="1" as="geometry" />
        </mxCell>
        <mxCell id="NO2JVZ4yjpvgCOlLwr5w-23" style="edgeStyle=orthogonalEdgeStyle;rounded=0;comic=0;orthogonalLoop=1;jettySize=auto;html=1;startArrow=none;startFill=0;endArrow=classic;endFill=1;" edge="1" parent="1" source="NO2JVZ4yjpvgCOlLwr5w-8">
          <mxGeometry relative="1" as="geometry">
            <mxPoint x="320" y="66" as="targetPoint" />
            <Array as="points">
              <mxPoint x="287" y="66" />
            </Array>
          </mxGeometry>
        </mxCell>
      </root>
    </mxGraphModel>
  </diagram>
</mxfile>
